<svg id="Capa_1" data-name="Capa 1" xmlns="http://www.w3.org/2000/svg" viewBox="0 0 1320.94 221.03"><defs><style>.cls-1{fill:none;stroke:#00ffd4;stroke-miterlimit:10;}.cls-2{fill:#00ffd4;}</style></defs><title>foto</title><path class="cls-1" d="M1.5,2.5s18,138,121,125,120-101,120-101,46-50,125-14-133,67-59,125,194,23,209-2-126-119,152-107,82,88,58,45-94-13-73,19,69,111,175,38,150-87,217-60,2,42,103,117,172-56,172-56" transform="translate(-1 1.03)"/><circle class="cls-2" cx="69.5" cy="38.53" r="21"/><circle class="cls-2" cx="202" cy="186.03" r="35"/><circle class="cls-2" cx="63.5" cy="173.53" r="5.5"/><circle class="cls-2" cx="417.5" cy="76.53" r="20.5"/><circle class="cls-2" cx="512" cy="13.03" r="10"/><circle class="cls-2" cx="584" cy="82.03" r="32"/><circle class="cls-2" cx="654" cy="201.03" r="13"/><circle class="cls-2" cx="884" cy="70.03" r="19"/><circle class="cls-2" cx="998" cy="157.03" r="18"/><circle class="cls-2" cx="910.5" cy="175.53" r="7.5"/><circle class="cls-2" cx="996" cy="15.03" r="6"/><circle class="cls-2" cx="765" cy="27.03" r="6"/><circle class="cls-2" cx="731.5" cy="85.53" r="7.5"/><circle class="cls-2" cx="181" cy="46.03" r="5"/></svg>